<svg xmlns="http://www.w3.org/2000/svg" fill="none" viewBox="0 0 300 68"><g clip-path="url(#a)"><path fill="#fff" fill-rule="evenodd" d="M196.166 65.495h10.563V54.097h-10.563c-10.902 0-18.977-9.765-18.977-21.334 0-11.424 8.801-21.365 20.613-21.365 13.611 0 21.628 6.968 21.628 18.55v35.786h11.502V29.948C230.932 11.713 217.454 0 197.802 0c-18.524 0-32.115 15.352-32.115 32.763 0 17.419 12.663 32.732 30.479 32.732ZM.146 46.624c1.182 12.62 10.591 20.54 25.35 20.54 15.049 0 25.355-8.3 25.355-20.673 0-11.578-6.301-16.27-19.623-18.958l-.312-.063-.346-.07c-.414-.082-.829-.16-2.861-.538l-.529-.098c-10.117-1.886-13.27-3.513-13.27-8.081 0-4.45 4.351-7.605 11.23-7.605 7.131 0 11.19 3.084 11.956 8.394l.177 1.227h11.811l-.133-1.551C47.97 7.727 38.287.239 25.732.239 11.89.24 2.035 7.628 2.035 18.683c0 11.102 6.035 15.378 19.556 18.179l.268.055.174.036c.25.052.5.102 1.916.384l.005.001.524.105c10.965 2.185 14.38 4.054 14.38 9.518 0 5.587-4.696 9.247-12.89 9.247-8.29 0-12.89-3.373-13.85-9.923l-.179-1.224H0l.146 1.563ZM92.97 65.639l15.166-47.331 15.053 47.33h14.186l20.204-63.873h-13.217l-14.356 48.172-15.488-48.172h-12.754l-15.6 48.172L71.919 1.765H58.704l20.08 63.874h14.185ZM275.592.239C290.226.24 300 11.013 300 25.84V65.64h-12.23V26.427c0-8.604-6.224-14.645-14.428-14.645-9.007 0-15.848 6.844-15.848 16.053v37.804h-12.23V1.765h12.23V8.23C261.31 3.375 267.847.24 275.592.24Z" clip-rule="evenodd"/></g><defs><clipPath id="a"><path fill="#fff" d="M0 0h300v67.164H0z"/></clipPath></defs></svg>